<svg xmlns="http://www.w3.org/2000/svg" viewBox="0 0 380 120" width="380" height="120">
  <defs>
    <linearGradient id="bg-grad-light" x1="0%" y1="0%" x2="100%" y2="100%">
      <stop offset="0%" stop-color="#f8fafc" />
      <stop offset="100%" stop-color="#e2e8f0" />
    </linearGradient>
    <radialGradient id="glow" cx="10%" cy="50%" r="60%">
      <stop offset="0%" stop-color="#6b21a8" stop-opacity="0.08" />
      <stop offset="100%" stop-color="#6b21a8" stop-opacity="0" />
    </radialGradient>
  </defs>
  
  <!-- Border & Background -->
  <rect width="380" height="120" rx="8" fill="url(#bg-grad-light)" stroke="#cbd5e1" stroke-width="1" />
  <rect width="380" height="120" rx="8" fill="url(#glow)" />
  
  <!-- Icon Wrapper -->
  <g transform="translate(20, 36)">
    <circle cx="24" cy="24" r="28" fill="#f1f5f9" stroke="#cbd5e1" stroke-width="1" />
    <g transform="translate(12, 12)">
      <rect x="9" y="4" width="6" height="11" rx="3" fill="#6b21a8" />
                <path d="M6 10v1a6 6 0 0 0 12 0v-1" stroke="#6b21a8" stroke-width="2" fill="none" stroke-linecap="round" />
                <line x1="12" y1="17" x2="12" y2="20" stroke="#6b21a8" stroke-width="2" stroke-linecap="round" />
                <line x1="9" y1="20" x2="15" y2="20" stroke="#6b21a8" stroke-width="2" stroke-linecap="round" />
                <path d="M3 12c0-1.5.5-2.8 1.5-3.8M21 12c0-1.5-.5-2.8-1.5-3.8" stroke="#6b21a8" stroke-width="1.5" stroke-linecap="round" opacity="0.6" />
    </g>
  </g>

  <!-- Content -->
  <g transform="translate(88, 20)">
    <!-- Title -->
    <text x="0" y="15" fill="#0f172a" font-family="system-ui, -apple-system, sans-serif" font-weight="700" font-size="15">InfinixLeverage</text>
    
    <!-- Tag -->
    <g transform="translate(210, 0)">
      <rect width="60" height="18" rx="3" fill="#f1f5f9" stroke="#6b21a8" stroke-width="1" />
      <text x="30" y="12" fill="#6b21a8" font-family="system-ui, -apple-system, sans-serif" font-weight="800" font-size="9" text-anchor="middle">LIVE</text>
    </g>
    
    <!-- Description -->
    <foreignObject x="0" y="26" width="270" height="42">
      <div xmlns="http://www.w3.org/1999/xhtml" style="color: #475569; font-family: system-ui, -apple-system, sans-serif; font-size: 11px; line-height: 1.35; max-height: 38px; overflow: hidden; display: -webkit-box; -webkit-line-clamp: 2; -webkit-box-orient: vertical;">
        Voice AI call agents for hospitality & client operations delivery systems.
      </div>
    </foreignObject>
    
    <!-- Tech Stack -->
    <text x="0" y="85" fill="#6b21a8" font-family="system-ui, -apple-system, sans-serif" font-size="9.5" font-weight="600" opacity="0.95">Voice AI · Eval Frameworks · JS · Docker</text>
  </g>
</svg>
